<?xml version="1.0" encoding="UTF-8" standalone="no"?>
<!-- Created with Inkscape (http://www.inkscape.org/) -->

<svg
   width="210mm"
   height="297mm"
   viewBox="0 0 210 297"
   version="1.1"
   id="svg5"
   inkscape:version="1.1.2 (b8e25be833, 2022-02-05)"
   sodipodi:docname="goanywhere.svg"
   xmlns:inkscape="http://www.inkscape.org/namespaces/inkscape"
   xmlns:sodipodi="http://sodipodi.sourceforge.net/DTD/sodipodi-0.dtd"
   xmlns="http://www.w3.org/2000/svg"
   xmlns:svg="http://www.w3.org/2000/svg">
  <sodipodi:namedview
     id="namedview7"
     pagecolor="#505050"
     bordercolor="#ffffff"
     borderopacity="1"
     inkscape:pageshadow="0"
     inkscape:pageopacity="0"
     inkscape:pagecheckerboard="1"
     inkscape:document-units="mm"
     showgrid="false"
     inkscape:zoom="0.73406285"
     inkscape:cx="397.10496"
     inkscape:cy="561.94098"
     inkscape:window-width="1920"
     inkscape:window-height="1017"
     inkscape:window-x="-8"
     inkscape:window-y="-8"
     inkscape:window-maximized="1"
     inkscape:current-layer="layer1" />
  <defs
     id="defs2" />
  <g
     inkscape:label="Layer 1"
     inkscape:groupmode="layer"
     id="layer1">
    <path
       style="fill:#45973d;stroke:none;stroke-width:0.523906"
       d="m 100.16049,16.188102 c -4.849663,1.249621 -8.123613,5.190951 -11.520633,8.590992 L 70.311567,43.124264 1.1877133,112.31176 -16.616911,130.13279 c -4.048629,4.05271 -8.365321,8.43249 -7.762039,14.67614 0.548795,5.68019 4.444708,9.34345 8.243699,13.14563 5.448009,5.45322 10.9496953,10.86137 16.32898528,16.38221 24.08134372,24.71566 48.73814272,48.92866 73.21845272,73.24913 8.07021,8.01788 20.5193,27.00564 33.555943,23.81989 4.63602,-1.1327 7.98591,-5.03392 11.21378,-8.26896 5.73571,-5.74832 11.429,-11.54854 17.2396,-17.22086 23.8514,-23.28213 47.39854,-46.9951 70.74198,-70.78774 5.94623,-6.06071 11.97205,-12.04488 17.97639,-18.04691 3.93324,-3.93215 7.94977,-8.34286 7.36798,-14.36897 -0.81064,-8.38951 -9.57889,-14.39782 -15.09362,-19.91763 L 173.47367,79.814607 123.72544,30.02057 C 117.4556,23.745055 110.37669,13.555378 100.16049,16.188102 m 0.52366,9.837886 c 9.54119,-1.913454 15.48584,6.390724 21.47029,12.380947 l 43.46425,43.504262 41.36957,41.407663 c 5.36391,5.36885 13.78079,11.22883 14.56994,19.39349 0.60275,6.24363 -3.71382,10.62341 -7.76229,14.67613 l -15.70997,15.72441 -64.41084,64.47017 -16.23365,16.24857 c -2.97075,2.97349 -6.1604,6.71853 -10.47332,7.65781 -9.786253,2.13013 -15.863383,-6.23894 -21.993933,-12.37514 L 41.509965,205.61005 0.14037528,164.20239 C -5.2564707,158.80054 -13.636005,153.01971 -14.429312,144.80893 c -0.570111,-5.90034 3.378489,-10.2822 7.2383813,-14.15199 L 9.0426953,114.40836 73.453557,49.938184 89.163517,34.213752 c 3.34308,-3.34621 6.65055,-7.211171 11.520633,-8.187764 m 0.52419,7.933343 C 91.934767,35.879074 83.520497,48.826362 76.924937,55.17966 56.136983,75.203687 35.733408,95.853527 15.629718,116.56575 10.443599,121.9089 5.1084053,127.1226 -0.16266172,132.38191 c -3.28186298,3.27436 -6.74922098,6.82859 -6.38704498,11.90288 0.54179,7.5907 8.536683,13.05493 13.497747,18.04168 12.8888617,12.95691 25.8622547,25.82999 38.7512357,38.78692 13.636261,13.70802 27.332201,27.35631 40.998301,41.03448 4.60984,4.61406 10.66025,13.22476 18.175903,11.79436 9.80931,-1.86754 18.0387,-14.54195 24.94166,-21.22851 20.75235,-20.10368 40.89356,-40.8809 61.31078,-61.32579 5.63621,-5.64402 11.38082,-11.19946 16.90968,-16.94988 2.99064,-3.11081 5.97711,-6.51831 5.64248,-11.20156 -0.53779,-7.53986 -8.5551,-13.08169 -13.49746,-18.04169 L 161.80064,86.781047 120.43106,45.373328 C 115.21169,40.148887 109.61004,32.22 101.20834,33.959331 m 15.70945,55.289936 v 0.52414 c 8.96306,4.9338 8.23412,19.468433 11.87883,27.777743 2.55287,5.81908 10.53092,10.06364 15.17636,14.22747 2.38999,2.14271 11.49706,7.2065 10.45655,10.92796 -1.15364,4.12556 -5.32306,2.49547 -7.43081,5.23309 -5.19582,6.7484 -9.22229,14.80349 -13.74832,22.02833 -2.12084,3.38546 -5.58909,7.08334 -6.75005,10.93896 -0.94365,3.13335 0.52732,7.45495 1.14525,10.5511 0.96197,4.81797 1.13165,9.8545 2.23029,14.67613 0.498,2.18465 2.28004,8.35597 0.44356,10.0411 -1.15364,1.05826 -3.03308,1.24066 -4.49934,1.49591 -1.72444,0.29981 -3.9317,1.39897 -5.66136,0.71809 -3.52375,-1.3869 -6.69715,-12.92235 -7.43029,-16.44828 -3.69655,2.97035 -8.44619,18.02125 -14.930753,14.36007 -1.49088,-0.84229 -0.09,-2.87023 0.4535,-3.87711 1.906133,-3.53119 3.957343,-6.9806 5.915313,-10.48296 1.79986,-3.21932 4.6596,-6.87943 5.53621,-10.48295 2.47223,-10.1585 -5.95984,-21.03299 -11.113243,-28.82811 -7.74447,18.86825 -15.94508,39.51128 -26.18326,57.13209 -10.49269,-5.44904 -6.35992,-12.9994 -4.01181,-22.0142 4.25898,-16.3529 11.96681,-33.5381 13.92427,-50.31816 0.36657,-3.14071 -1.23533,-6.32856 -1.48511,-9.43466 -0.43046,-5.35994 0.69071,-10.07466 2.04596,-15.2003 h -0.52367 c -2.77752,3.18106 -9.41289,-0.65885 -10.90114,-3.67113 -1.06462,-2.15476 0.0125,-4.29487 0.9096,-6.28767 2.92258,-6.4921 5.94099,-12.938073 8.94264,-19.393483 1.25784,-2.70565 2.24862,-6.62207 4.40822,-8.74383 3.17918,-3.12391 10.85767,0.47121 11.43633,4.59783 0.48542,3.45989 -3.00742,8.35228 -4.32235,11.484083 6.31017,-6.566013 9.311833,-15.160973 20.422973,-13.103693 -3.59969,-4.45474 -5.86245,-8.72707 -4.50668,-14.676149 1.60504,-7.040348 10.765,-10.489239 17.07412,-7.744277 8.6698,3.771775 9.80355,15.617506 2.74714,21.479036 -3.46195,2.87654 -7.42767,2.51383 -11.64893,2.51383 m -2.26904,-0.87375 0.34875,0.17512 -0.34875,-0.17512 m -22.343243,12.929143 -0.52366,2.0966 h 0.52366 v -2.0966 m -1.57099,3.14488 v 1.57245 h 0.52366 l -0.52366,-1.57245 m -1.571,3.66905 0.52368,0.52414 -0.52368,-0.52414 m -2.61832,5.24147 0.52366,0.52414 -0.52366,-0.52414 m -2.61833,5.76563 v 1.57245 h 0.52366 l -0.52366,-1.57245 m 31.943583,6.28978 -6.58928,13.10369 3.85523,8.91052 9.5417,23.58662 c 2.95296,-1.68514 3.97672,-4.99774 5.57705,-7.86219 3.65728,-6.54556 9.50295,-14.1693 11.18025,-21.49006 -5.67286,-1.76534 -14.27617,-5.79602 -18.74199,-9.72504 -2.07423,-1.82456 -2.81364,-4.63453 -4.82296,-6.52354 z"
       id="path33" />
  </g>
</svg>
