<?xml version="1.0" encoding="UTF-8" standalone="no"?>
<!-- Created with Inkscape (http://www.inkscape.org/) -->

<svg
   width="512.0px"
   height="512.0px"
   viewBox="0 0 512.0 512.0"
   version="1.1"
   id="SVGRoot"
   sodipodi:docname="drawing.svg"
   inkscape:version="1.1.2 (b8e25be833, 2022-02-05)"
   xmlns:inkscape="http://www.inkscape.org/namespaces/inkscape"
   xmlns:sodipodi="http://sodipodi.sourceforge.net/DTD/sodipodi-0.dtd"
   xmlns="http://www.w3.org/2000/svg"
   xmlns:svg="http://www.w3.org/2000/svg">
  <sodipodi:namedview
     id="namedview21"
     pagecolor="#ffffff"
     bordercolor="#666666"
     borderopacity="1.0"
     inkscape:pageshadow="2"
     inkscape:pageopacity="0.0"
     inkscape:pagecheckerboard="0"
     inkscape:document-units="px"
     showgrid="true"
     inkscape:zoom="1.0469406"
     inkscape:cx="339.5608"
     inkscape:cy="259.80461"
     inkscape:window-width="1920"
     inkscape:window-height="1017"
     inkscape:window-x="-8"
     inkscape:window-y="-8"
     inkscape:window-maximized="1"
     inkscape:current-layer="layer1">
    <inkscape:grid
       type="xygrid"
       id="grid27" />
  </sodipodi:namedview>
  <defs
     id="defs16" />
  <g
     inkscape:label="Layer 1"
     inkscape:groupmode="layer"
     id="layer1">
    <path
       style="fill:#2089be;stroke:none;stroke-width:1.03916"
       d="M 173.50793,13.96235 V 15 H 340 C 306.77441,-0.00946 261.54371,-3.64242 225.53672,1.96565 c -12.64925,1.97003 -25.10806,4.3116 -37.46071,7.54244 -5.16127,1.35004 -9.09256,4.1704 -14.56808,4.45426 m -70.75913,38.39443 24.97383,1.03771 h 47.86647 158.16746 54.1099 l 22.89266,-2.0754 c -5.35271,-3.72791 -11.71377,-9.74835 -17.86669,-11.87093 -5.668,-1.95548 -13.64611,-0.58139 -19.59402,-0.58139 h -41.62304 -155.0457 c -23.64914,0 -57.21708,-7.03072 -73.88087,13.49001 M 63.206949,91.78897 H 450.30097 c -1.30279,-6.52725 -6.84487,-13.32472 -13.52746,-15.1161 -17.34537,-4.64999 -41.32332,-0.44924 -59.3128,-0.44924 H 145.41238 98.586529 c -6.99081,0 -16.06316,-1.52261 -22.79953,0.44997 -5.86146,1.71636 -11.68774,9.34835 -12.58005,15.11531 m -29.1361,39.43221 H 479.4371 c -1.05203,-5.27458 -5.03537,-13.91651 -10.42554,-15.97727 -7.11959,-2.72082 -18.4161,-0.62574 -25.9946,-0.62574 H 383.70414 119.39802 66.328689 c -6.42662,0 -17.05598,-2.00794 -22.84687,1.06671 -4.93265,2.61917 -7.8162,10.50147 -9.41097,15.5363 m -17.6898,36.31898 c 12.69222,3.0135 27.56859,1.03769 40.58246,1.03769 h 77.002571 247.65693 89.48948 c 7.71481,0 33.96854,2.96476 21.70222,-12.0017 -4.15706,-5.07235 -17.84067,-2.52574 -23.78338,-2.52574 H 400.35337 118.35746 52.801209 c -8.2806,0 -21.3236,-2.47587 -29.03822,0.62564 -4.96727,1.99759 -6.08161,8.30571 -7.38194,12.86411 m 491.151581,38.39444 v -5.18868 c -13.32354,0 -30.81038,3.02813 -43.68441,-0.32791 -5.50046,-1.43386 -5.1446,-7.523 -11.47129,-7.9262 -59.80705,-3.80257 -121.11049,-0.0503 -181.05493,-0.0503 -21.34012,0 -45.53348,-3.21468 -66.58118,0.14997 -5.1748,0.82823 -5.74711,6.5437 -10.47861,7.81815 -11.50563,3.10312 -28.60124,0.82631 -40.5252,0.30863 -6.65449,-0.28758 -6.591,-5.42062 -11.67943,-7.65512 -3.9469,-1.73156 -10.10188,-0.62591 -14.33495,-0.62591 H 33.030279 c -7.6956,0 -28.44061,-3.43085 -27.82822,9.27779 0.351,7.2839 22.52638,4.21219 27.82822,4.21219 h 89.489481 385.01287 m 4.16229,38.39475 v -13.4903 h -49.9476 l -3.41206,8.11567 -13.23716,1.22325 -31.21204,-0.15075 -10.47238,-9.03195 -48.84563,-0.14649 H 252.59164 c -2.13316,13.3845 -18.8011,9.33923 -29.13608,9.33923 -5.67634,0 -15.63361,1.88976 -20.65751,-1.06699 -3.30382,-1.94332 -2.72526,-6.81252 -6.55145,-7.94225 -13.5587,-4.00513 -33.53777,-0.32966 -47.71247,-0.32966 -0.6077,3.92282 -2.23827,7.21126 -6.24865,8.71363 -8.50047,3.18311 -22.1632,0.62589 -31.21207,0.62589 -3.82619,0 -8.77414,0.77263 -12.373461,-0.7699 -3.66909,-1.57364 -4.08219,-5.05816 -4.27573,-8.56962 h -72.84029 c -8.15257,0 -23.07292,-3.34377 -20.57383,9.27768 1.49969,7.57475 22.79433,4.21205 28.89844,4.21205 H 121.47916 511.69492 M 3.184379,268.2273 c -5.57833,3.71149 -2.58594,14.89891 3.84753,15.4753 28.28273,2.53497 57.94266,0.055 86.35171,0.055 h 298.645141 88.44891 c 5.89069,0 26.32341,3.15177 30.14756,-1.66337 2.9084,-3.66159 1.95315,-13.68585 -3.15402,-14.70303 -12.22259,-2.4324 -27.01123,-0.23442 -39.48045,-0.23442 -17.33494,0 -36.99555,-2.61274 -54.09015,0.14958 -6.61805,1.07076 -5.64406,9.73584 -12.52227,11.02469 -10.00514,1.87269 -33.19646,3.36381 -42.58763,-0.53381 -4.60351,-1.91157 -3.43702,-7.0357 -6.8907,-9.57764 -3.56918,-2.62841 -11.83133,-1.06681 -16.06233,-1.06681 -7.55353,0 -19.92493,-2.36909 -26.90513,0.62568 -4.80223,2.06218 -3.84698,8.72578 -9.53477,10.33766 -10.6919,3.03493 -26.33073,0.78374 -37.44096,0.43695 -9.4276,-0.29461 -7.74291,-10.36889 -15.62838,-11.28486 -31.66366,-3.68247 -65.89338,-0.11359 -97.79431,-0.11359 -15.03945,0 -35.40871,-3.62732 -49.886211,0.32967 -5.75439,1.57284 -4.73255,9.32143 -11.5118,10.72731 -9.76474,2.02537 -31.27792,3.1238 -40.5583,-0.57034 -4.80142,-1.9108 -4.06124,-6.90986 -7.75455,-9.42033 -4.71194,-3.20289 -30.89595,-3.15653 -35.63889,0 m 6.95323,52.89341 c 13.00082,3.08704 28.29096,1.03726 41.62303,1.03726 h 81.164871 260.14381 86.36778 c 14.26838,0 28.08094,2.67834 28.09553,-15.56551 h -98.85465 c -15.26735,0 -32.76877,-2.39974 -47.80506,0.15171 -5.90424,1.00253 -3.87616,9.01123 -10.48279,10.07017 -12.57016,2.01293 -46.26711,7.1784 -47.85087,-10.22358 H 80.896739 c -9.94593,0 -23.60357,-2.45004 -33.14827,0.33019 -5.29029,1.54087 -5.09248,8.87842 -11.5973,9.89343 -6.78924,1.05808 -23.37309,-3.6301 -26.01356,4.30426 m 8.95655,23.89556 c -6.30487,5.08846 4.54543,15.28938 9.77462,15.5167 24.52409,1.06364 49.33016,0.0261 73.880021,0.0261 h 281.99591 79.08375 c 7.51189,0 23.21004,3.01294 28.53986,-3.26714 2.12382,-2.50232 5.42243,-10.61438 1.29033,-12.71035 -6.54316,-3.32006 -20.44526,-0.62634 -27.74903,-0.62634 H 397.23164 117.31689 45.517159 c -6.01223,0 -21.6402,-2.79299 -26.423,1.06684 m 17.05782,37.32807 c 0.40897,6.13702 3.84245,13.58529 10.40659,15.23515 8.13679,2.04564 18.67376,0.32915 27.05413,0.32915 h 57.231651 263.26554 53.06937 c 6.52857,0 16.94471,1.9457 22.8354,-1.22307 4.47347,-2.40619 6.93235,-8.7283 8.38185,-13.30433 l -44.74473,-1.03953 H 341.04055 36.151979 m 27.05497,40.4698 c 2.16147,4.52993 6.7444,10.75868 11.53945,12.71986 5.50289,2.24998 13.81426,0.76987 19.67782,0.76987 h 44.744731 226.84544 48.90704 c 7.01971,0 16.00508,1.49329 22.799,-0.3281 5.11025,-1.37192 10.82199,-8.4084 12.58054,-13.16003 l -37.46073,-1.03763 H 335.83768 148.53413 92.343049 l -29.1361,1.03763 m 39.541851,37.35675 v 1.03742 l 17.8667,11.84237 19.59403,0.61035 h 41.62301 144.63995 45.78535 l 20.63459,-0.58094 17.86669,-11.87178 -22.89266,-2.0751 H 333.75656 175.5891 127.72263 l -24.97383,1.03778 m 75.96201,37.35737 c 7.90318,8.53617 26.50138,9.23315 37.46071,10.9891 27.01022,4.32613 56.2462,3.63585 83.24601,-0.33124 12.01763,-1.7662 25.61897,-3.73596 36.42015,-9.62164 -12.16849,-5.09186 -33.57935,-1.03769 -46.82589,-1.03769 z"
       id="path7429" />
  </g>
</svg>
